<?xml version="1.0" encoding="utf-8"?><svg viewBox="0 0 53 22" xmlns="http://www.w3.org/2000/svg" xmlns:xlink="http://www.w3.org/1999/xlink"><style>:root>svg{display:none}:root>svg:target{display:block}</style><svg fill="none" viewBox="0 0 53 22" id="isart-icon" xmlns="http://www.w3.org/2000/svg"><g clip-path="url(#aa)" fill-rule="evenodd" clip-rule="evenodd" fill="#614E51"><path d="M.616 18.19c.01-.086.029-.173.048-.25l.058-.318c.01-.048.01-.105.029-.163.01-.048.019-.087.029-.125.01-.087.028-.174.038-.27.01-.086.039-.173.048-.24 0-.058.087-.549.106-.587 0-.077.116-.8.135-.838.01-.134.057-.288.067-.423.01-.154.068-.356.087-.51.01-.135.048-.308.067-.443.01-.077.02-.135.039-.221.01-.058.029-.116.029-.193.028-.096.038-.279.067-.356.01-.144.048-.289.067-.433.01-.058.02-.096.03-.164.009-.048 0-.086.028-.106 0-.125.048-.25.048-.356.03-.163.068-.337.087-.5l.058-.337c.01-.038.019-.125.028-.164.01-.057.02-.077.02-.134.01-.087.029-.174.048-.26.01-.068.038-.173.038-.231a3.05 3.05 0 00.048-.289c.01-.192.087-.385.087-.587.02-.048.048-.212.048-.26a3.05 3.05 0 00.048-.289l.087-.529c.01-.038.01-.048.01-.087 0-.019 0-.019.01-.038l.009-.02c0-.144.048-.317.067-.452 0-.057.048-.337.068-.365 0-.126.038-.174.038-.29.01-.047.048-.22.048-.278 0-.068.02-.096.03-.164l.076-.404c0-.125.02-.183.039-.299.01-.038.038-.22.048-.269.01-.087.029-.144.038-.24.01-.068.087-.607.116-.636 0-.086.01-.106.029-.183.01-.067.048-.404.077-.433 0-.106.019-.183.038-.289.02-.096.02-.163.048-.24l.106-.606c0-.078.087-.597.106-.626 0-.087.077-.549.106-.606 0-.068.048-.366.067-.405 0-.086.03-.24.048-.327 0-.058.126-.77.135-.808 0-.135.048-.299.068-.433 0-.077.01-.058.019-.116H24.61l-.096.635c-.02.096.01.039-.039.077l.01.048c-.029.145-.106.78-.154.847.01.087-.077.664-.116.722.01.096-.077.578-.105.693l-.058.327-.183 1.001c.01.068-.077.597-.106.645.01.144-.048.366-.077.52l-.087.51c-.01.02-.01.02-.01.038l-.009.03c.01.076-.01.26-.058.317.01.106-.038.308-.057.414-.02.115-.097.673-.135.722.01.086-.058.548-.106.606.01.048-.038.443-.087.5.02.125-.096.597-.115.77-.029.106-.039.222-.058.328l-.067.336c.01.048-.048.54-.106.616.02.077-.01.26-.058.318.01.087-.019.183-.029.28l-.105.528c.01.068-.02.29-.058.337.01.097-.039.433-.087.5.01.097-.02.203-.038.3-.01.066-.03.24-.068.288.01.058 0 .106-.01.163 0 .03-.01.058-.019.087-.01.058 0 .029-.028.067.01.068 0 .106-.01.164 0 .02-.01.058-.01.077-.01.058 0 .029-.029.068l-.057.452c-.039.115.038-.096-.01.029 0 0-.01.019-.01.01 0 0 0 .009-.01.009.01.058 0 .106-.009.164l-.038.144c.019.077-.049.481-.087.539.01.096-.058.548-.106.606.01.096-.038.453-.087.51.01.077-.01.25-.048.308.01.087-.019.193-.038.29l-.068.423c-.01.067-.048.336-.077.394.02.096-.019.221-.038.327-.02.097-.02.231-.067.299.01.086-.02.183-.03.27-.009.076-.018.192-.057.24.02.115-.048.356-.067.481-.02.125-.02.356-.087.443.01.096-.039.452-.087.51.01.086-.067.568-.106.616.01.115-.057.433-.077.568-.019.144.01.163-.134.173H2.753v-.01c-.578 0-1.155 0-1.723.01H0c.01-.077.029-.164.048-.25l.077-.5c.01-.04.029-.213.048-.232 0-.058.068-.5.087-.53 0-.067.02-.163.029-.22.212-1.233.048-.164.298-1.79l.029.028zm4.389 1.675h3.253c1.01-4.976 2.358-12.906 3.253-18.113H8.287c.038 1.145-3.128 17.256-3.273 18.123l-.01-.01zm8.142-5.265c-.029.068-.039.193-.048.28-.01.086-.048.192-.048.288 0 .058-.03.135-.039.193-.01.067-.029.154-.038.23a2.09 2.09 0 00-.068.395c-.029.039-.106.53-.106.616l-.105.54c-.02.144-.068.26-.049.442.03.289.28.471.587.423.231-.038.212-.057.366-.144.058-.096.289-.289.27-.443.038-.057.106-.5.115-.568.03-.125.106-.51.097-.606l.01-.029c0-.01.076-.23.057-.365l.029-.097c.01-.029.01-.067.019-.106.01-.067.038-.144.02-.211.009-.02.009 0 .018-.039l.02-.086c.01-.068.01-.068.01-.126.047-.057.067-.317.086-.413.02-.125.087-.395.077-.5l.067-.29c.02-.105.048-.211.039-.308.029-.038.029-.096.019-.154.087-.134-.048-.654-.096-.798-.048-.135-.299-.54-.376-.578-.019-.048-.23-.337-.279-.366-.019-.057 0-.01-.038-.057l-.27-.337-.067-.106c-.087-.106-.49-.635-.53-.645-.019-.067-.182-.26-.24-.327-.048-.058-.212-.289-.25-.308-.02-.039-.25-.366-.289-.385-.048-.116-.135-.222-.202-.337a1.583 1.583 0 01-.096-.183c-.02-.048-.049-.144-.077-.183-.039-.221-.058-.327-.049-.568l.087-.615.145-.809c.028-.135.105-.481.086-.597.048-.067.087-.375.087-.471.038-.048.115-.54.106-.607.067-.106.096-.558.144-.721.02-.135.096-.434.087-.549.019-.02.01 0 .019-.039l.038-.163c.02-.068.048-.145.039-.212.029-.038.02-.02.038-.077.01-.029.02-.048.03-.077.018-.058.038-.096.038-.164.048-.048.106-.211.134-.288l.154-.289c.049-.029.097-.106.135-.154.048-.067.087-.096.145-.144.048-.039.317-.222.327-.241.086-.029.183-.096.279-.135.096-.038.183-.077.289-.106.221-.067.414-.096.654-.115.684-.02 1.386 0 2.079 0 .664 0 1.29.058 1.646.443.077.077.24.298.289.433.038.115.086.202.115.327a1.921 1.921 0 01.02.664c-.01.077-.03.173-.03.26-.01.087-.038.192-.048.279a1.48 1.48 0 01-.057.308c0 .067-.03.173-.039.25-.02.096-.038.193-.048.28a2.47 2.47 0 00-.048.288c-.01.067-.029.144-.048.231-.02.096-.039.183-.039.28-.029.086-.038.201-.058.307-.019.125-.038.222-.057.337 0 .067-.039.23-.048.289-.01.057-.01.077-.02.144-.01.048-.029.106-.029.173a2.46 2.46 0 01-.048.231 1.31 1.31 0 00-.038.26c-.01.058-.029.135-.048.212l-2.57.01c0-.183.115-.51.106-.684.048-.058.096-.423.086-.51.02-.029.01 0 .02-.048l.077-.51c.057-.067.106-.616.144-.741.02-.135.077-.337.068-.462.038-.058.038-.202.067-.27l.01-.096.028-.125c.077-.375-.067-.703-.462-.703-.317 0-.644.193-.74.462-.02.049-.02.077-.04.116-.018.096-.047.23-.047.327-.02.087-.03.145-.048.24-.02.097-.039.174-.039.28l-.038.144-.03.173c-.019.126-.047.241-.057.357-.029.019-.02.077-.029.125-.01.067-.02.086-.029.144-.01.087-.048.212-.048.298-.02.077-.029.145-.048.241-.02.096-.039.173-.039.28-.028.038-.067.317-.077.413-.01.067-.028.337-.01.404.02.058-.018.02.03.048-.048.135.125.472.202.607.048.077-.01.029.067.067-.01.048-.01.01 0 .048 0 .02.02.039.029.058l.462.626c.039.028-.029 0 .039.028 0 .058.23.328.279.366l.346.404c0 .01-.02.01.029.077l.433.54.24.298c.068.086.04.067.097.096.01.058.144.221.183.289.077.115.144.279.202.308-.02.057-.01.019.02.086.018.03.018.039.038.087l.125.356c.038.144.01.154.057.193-.048.115-.019.288-.019.413-.01.077-.02.097-.02.193a4.55 4.55 0 00-.086.577c-.029.03 0-.01-.019.039 0 .01-.01.067-.01.067-.01.068-.019.106-.019.164a3.752 3.752 0 00-.086.49c-.02.078-.039.193-.049.29-.01.105-.048.202-.048.327-.019.019-.019.067-.029.106-.01.057-.01.086-.019.134-.019.097-.029.203-.048.29 0 .095-.048.23-.048.346a1.07 1.07 0 00-.048.279c-.02.134-.058.27-.067.414-.02.048-.068.336-.068.413-.029.02-.029.096-.029.135-.01.067-.019.096-.029.164-.019.115-.048.24-.057.356a1.33 1.33 0 00-.049.211 1.903 1.903 0 00-.057.25l-.164.463c-.087.212-.192.337-.23.433-.02.01-.136.173-.164.212-.039.048-.049.057-.087.105l-.106.116c-.077.106-.385.327-.53.385-.076.029-.144.048-.22.096-.087.01-.424.125-.732.135l-.857.02c-.163 0-.27.018-.414.018H11.81c-.106 0-.125-.019-.221-.019-.048 0-.183-.029-.24-.038-.04-.01-.068-.01-.117-.02-.048-.01-.067-.028-.125-.028-.336-.077-.433-.193-.606-.318-.029-.02-.01-.01-.029-.02-.029-.047 0-.009-.038-.057-.01-.02-.02-.02-.03-.038l-.326-.616c-.01-.087-.039-.164-.049-.25-.01-.097.01-.184-.01-.27.03-.058.068-.5.078-.606.02-.154.096-.472.086-.597a.759.759 0 00.058-.327l.01-.03s.086-.317.067-.442c.039-.048.135-.616.125-.703l.039-.144c.01-.067.029-.106.01-.164l.019-.057c0-.01.01-.048.01-.058.009-.039.009-.077.019-.116.01-.076.038-.163.028-.24.049-.067.097-.385.087-.481.039-.058.116-.597.135-.712.058-.049 1.213-.02 1.28-.02h1.309l-.096.568-.039.222c-.02.105-.058.211-.058.327h-.038zM32.3 8.364l.077 1.213c.01.067.01.115.01.211 0 .097.019.106.019.203 0 .269.048.548.048.827l.029.395c.019.144.019.279.019.423 0 .116.029.28.038.395l.03.597c0 .096.019.115.019.202l.048.828c0 .096.019.105.019.202 0 .24.029.356.029.616l.038.413H31.01l.318-1.636c.048-.279.115-.539.163-.818.02-.135.049-.26.077-.404.03-.145.058-.27.077-.414l.318-1.636c.058-.27.096-.549.164-.818l.115-.607c.01-.038.01-.048.02-.105l.028-.106.01.019zm9.278 2.868h-1.665c-.068 0-.039-.058-.039-.135l.193-3.05c0-.097.019-.107.019-.193l.058-1.02c.01-.068.01-.125.01-.202 0-.174.047-.607.047-.809 0-.096.02-.115.02-.202l.019-.414c.01-.115.029-.289.029-.414h1.78c.491 0 .347.366.347.751l-.221 3.446c0 .077.01.144 0 .221-.049.433-.049.991-.097 1.415-.029.26.077.597-.5.597v.01zm-11.646 8.97c.039-.183.077-.385.116-.568.038-.202.077-.385.115-.587.039-.192.077-.385.116-.587.038-.193.077-.395.125-.577h2.54c0 .163.049.423.049.587.01.288.058.587.067.876.01.192.048.394.048.596 0 .087-.01.26.068.26h6.073c.077 0 .048-.135.067-.327.02-.24.02-.5.048-.741.01-.058 0-.125 0-.183l.068-.934c.019-.173.01-.394.038-.568.029-.182.02-.375.039-.567.01-.058 0-.116.01-.183l.096-1.492c0-.077 0-.125.01-.202.028-.212.047-.549.047-.76h.443c.067 0 .058.086.077.144l.49 2.06.184.76c.192.75.375 1.492.539 2.252l.134.568c.02.067.01.163.077.163h3.821c0-.086-.067-.279-.096-.375l-.395-1.473c-.154-.625-.346-1.241-.5-1.867-.154-.616-.346-1.241-.49-1.857-.03-.125-.078-.25-.107-.375.472 0 .828-.126 1.088-.337a1.83 1.83 0 00.693-1.463l.212-3.369c.019-.106.01-.24.028-.337l.039-.683c0-.077.01-.096.02-.154.009-.067 0-.116.009-.183.029-.163.019-.337.029-.5l.048-.674c.01-.164.01-.356.029-.52l.057-1.02h1.146c0 .318-.048.626-.048.943l-.068.943c-.02.164-.01.318-.02.482l-.066.943c0 .173-.01.337-.03.481l-.23 3.792c-.02.135-.02.337-.03.472 0 .086-.018.115-.018.221l-.308 5.005c-.01.144-.039.317-.039.462l-.058.953a3.834 3.834 0 00-.029.48h3.773c.077 0 .048-.105.048-.192 0-.154.039-.308.039-.48l.077-1.194a3.53 3.53 0 00.029-.472c0-.087.02-.125.02-.24 0-.116.018-.145.018-.241 0-.125.01-.347.03-.472.028-.163.009-.327.028-.49.01-.145.029-.309.029-.463l.038-.48c0-.107.01-.145.02-.222l.038-.741c.02-.28.058-.664.067-.943l.049-.963c.01-.144.038-.308.038-.462 0-.164.029-.327.039-.481.01-.337.038-.626.048-.963l.337-5.226c.01-.086.01-.154.01-.25 0-.087.018-.125.018-.24H53.6c-.067-.28-.116-.568-.183-.867l-.26-1.299c-.029-.154-.058-.289-.087-.443-.028-.134-.057-.288-.086-.423-.029-.154-.077-.299-.077-.453h-6.93c-.01.068-.029.116-.048.174-.058.163-.135.346-.173.51h-.039c-.019-.068-.086-.116-.134-.164a1.425 1.425 0 00-.357-.24c-.317-.193-.818-.28-1.241-.28h-7.257c0 .26-.038.462-.038.703 0 .077-.01.106-.01.154-.01.067 0 .125-.01.183-.01.096-.019.25-.029.346-.01.058 0 .116 0 .174l-.057.885c-.03.212-.039.79-.058 1.059l-.029.52c0 .182-.038.336-.038.51l-.106 1.578c-.01.289-.058.587-.048.876 0 .289-.039.587-.049.876l-.134 2.079c0 .413-.068.837-.068 1.25h-.019c0-.346-.125-1-.154-1.385l-.029-.231c-.01-.096-.01-.145-.019-.231l-.327-2.762c-.087-.607-.125-1.242-.222-1.839l-.057-.462-.491-4.157c-.02-.174-.039-.116-.404-.116h-3.62l-.654 2.704c-.51 2.031-.981 4.072-1.491 6.112a17.18 17.18 0 00-.164.674l-1.068 4.398-.087.347-.991 4.07c-.01.03-.087.338-.087.338.01.048 0 .028.058.028h3.705v.039z"/></g><defs><clipPath id="aa"><path fill="#fff" d="M0 0h52.338v21.684H0z"/></clipPath></defs></svg><svg fill="none" viewBox="0 0 20 20" id="modal-close-icon" xmlns="http://www.w3.org/2000/svg"><g clip-path="url(#ba)" fill="#000"><path d="M1.896 19.875A1.894 1.894 0 01.55 19.42a1.894 1.894 0 010-2.671L16.634.665A1.894 1.894 0 0119.4 3.242L3.222 19.42a1.894 1.894 0 01-1.326.455z"/><path d="M17.96 19.875a1.895 1.895 0 01-1.326-.55L.551 3.242A1.894 1.894 0 013.22.57L19.4 16.653a1.894 1.894 0 010 2.766 1.895 1.895 0 01-1.44.455z"/></g><defs><clipPath id="ba"><path fill="#fff" d="M0 0h20v20H0z"/></clipPath></defs></svg></svg>