<svg width="53" height="22" viewBox="0 0 53 22" fill="none" xmlns="http://www.w3.org/2000/svg">
<g clip-path="url(#clip0_592_1251)">
<path fill-rule="evenodd" clip-rule="evenodd" d="M0.615943 18.1903C0.62559 18.1037 0.644796 18.0171 0.664089 17.94L0.721795 17.6224C0.731441 17.5743 0.731441 17.5166 0.75069 17.4588C0.760294 17.4107 0.769897 17.3722 0.779543 17.3337C0.78919 17.2471 0.808396 17.1605 0.818043 17.0643C0.827689 16.9776 0.856542 16.891 0.866188 16.8237C0.866188 16.7659 0.952832 16.2751 0.972039 16.2366C0.972039 16.1596 1.08758 15.4378 1.10679 15.3993C1.11643 15.2646 1.16449 15.1105 1.17414 14.9758C1.18378 14.8218 1.24153 14.6197 1.26078 14.4657C1.27043 14.331 1.30893 14.1577 1.32818 14.023C1.33782 13.946 1.34738 13.8883 1.36668 13.8016C1.37632 13.7439 1.39557 13.6861 1.39557 13.6091C1.42443 13.5129 1.43407 13.33 1.46292 13.253C1.47257 13.1087 1.51107 12.9643 1.53032 12.8199C1.53992 12.7622 1.54953 12.7237 1.55917 12.6563C1.56882 12.6082 1.55917 12.5697 1.58807 12.5504C1.58807 12.4253 1.63617 12.3002 1.63617 12.1943C1.66507 12.0307 1.70357 11.8575 1.72281 11.6938C1.74206 11.5783 1.76131 11.4725 1.78056 11.357C1.79017 11.3185 1.79977 11.2319 1.80942 11.1934C1.81906 11.1357 1.82867 11.1164 1.82867 11.0587C1.83827 10.972 1.85752 10.8854 1.87677 10.7988C1.88641 10.7314 1.91527 10.6255 1.91527 10.5678C1.93452 10.4716 1.95381 10.3657 1.96341 10.2791C1.97306 10.0866 2.05006 9.89411 2.05006 9.69201C2.06926 9.64386 2.0982 9.48026 2.0982 9.43212C2.11741 9.33587 2.1367 9.23002 2.14635 9.14337L2.23299 8.61403C2.2426 8.57553 2.2426 8.56589 2.2426 8.52739C2.2426 8.50814 2.2426 8.50814 2.25224 8.48889L2.26189 8.46964C2.26189 8.32529 2.30999 8.15204 2.32924 8.01729C2.32924 7.95959 2.37739 7.68045 2.39664 7.65155C2.39664 7.52645 2.43513 7.47835 2.43513 7.36281C2.44478 7.31466 2.48328 7.14146 2.48328 7.08371C2.48328 7.01636 2.50249 6.98751 2.51213 6.92011L2.58913 6.51587C2.58913 6.39077 2.60838 6.33298 2.62767 6.21748C2.63728 6.17898 2.66617 5.99609 2.67577 5.94803C2.68542 5.86139 2.70467 5.80364 2.71427 5.70743C2.72392 5.64004 2.80092 5.10105 2.82981 5.0722C2.82981 4.98555 2.83942 4.96635 2.85867 4.88935C2.86831 4.82195 2.90681 4.48511 2.93571 4.45621C2.93571 4.35036 2.95492 4.27336 2.97421 4.16747C2.99341 4.07122 2.99341 4.00387 3.02231 3.92687L3.1282 3.32053C3.1282 3.24349 3.21485 2.72379 3.23406 2.69494C3.23406 2.60829 3.31105 2.14635 3.33991 2.0886C3.33991 2.0212 3.38805 1.72286 3.4073 1.68432C3.4073 1.59771 3.43615 1.44376 3.45545 1.35712C3.45545 1.29937 3.58055 0.587176 3.59015 0.548634C3.59015 0.41393 3.6383 0.250287 3.65755 0.11554C3.65755 0.0385418 3.66715 0.0577914 3.67675 0H24.61L24.5137 0.635193C24.4945 0.731441 24.5233 0.673692 24.4752 0.712191L24.4849 0.760337C24.456 0.904687 24.379 1.53992 24.3308 1.60727C24.3405 1.69392 24.2538 2.27136 24.2153 2.32911C24.225 2.42532 24.1383 2.9066 24.1095 3.02205L24.0517 3.3493L23.8689 4.35027C23.8785 4.41763 23.7919 4.94697 23.763 4.99511C23.7726 5.13946 23.7149 5.36085 23.686 5.51485L23.5994 6.0249C23.5897 6.04415 23.5897 6.04415 23.5897 6.06344L23.5801 6.0923C23.5897 6.16929 23.5705 6.35219 23.5224 6.40989C23.532 6.51574 23.4839 6.71789 23.4646 6.82374C23.4454 6.93923 23.3684 7.49743 23.3299 7.54553C23.3395 7.63218 23.2722 8.09412 23.224 8.15191C23.2337 8.20002 23.1855 8.59461 23.1374 8.65236C23.1566 8.77746 23.0412 9.2491 23.0219 9.4223C22.993 9.52819 22.9834 9.64369 22.9642 9.74954L22.8968 10.0864C22.9064 10.1345 22.8486 10.6254 22.7909 10.7023C22.8101 10.7794 22.7813 10.9622 22.7332 11.02C22.7428 11.1066 22.714 11.2028 22.7043 11.2991L22.5985 11.8284C22.6081 11.8958 22.5792 12.1172 22.5407 12.1653C22.5504 12.2615 22.5022 12.5983 22.4541 12.6657C22.4637 12.7619 22.4349 12.8678 22.4156 12.9641C22.4059 13.0315 22.3867 13.2047 22.3482 13.2528C22.3578 13.3106 22.3482 13.3587 22.3386 13.4165C22.3386 13.4453 22.3289 13.4742 22.3194 13.5031C22.3097 13.5608 22.3194 13.532 22.2905 13.5705C22.3001 13.6379 22.2905 13.6763 22.2808 13.7341C22.2808 13.7533 22.2712 13.7918 22.2712 13.8111C22.2616 13.8688 22.2712 13.84 22.2423 13.8785L22.1846 14.3308C22.1461 14.4463 22.2231 14.2346 22.175 14.3597C22.175 14.3597 22.1653 14.3789 22.1653 14.3693C22.1653 14.3693 22.1653 14.379 22.1557 14.379C22.1653 14.4367 22.1557 14.4848 22.1461 14.5426L22.1076 14.6869C22.1268 14.7639 22.0594 15.1681 22.0209 15.2259C22.0306 15.3221 21.9632 15.7745 21.9151 15.8323C21.9247 15.9285 21.8766 16.2846 21.8285 16.3423C21.8381 16.4194 21.8188 16.5926 21.7803 16.6503C21.79 16.737 21.7611 16.8428 21.7418 16.9391L21.6744 17.3626C21.6648 17.4299 21.6263 17.6994 21.5974 17.7571C21.6167 17.8534 21.5782 17.9785 21.5589 18.0844C21.5397 18.1806 21.5397 18.3154 21.4916 18.3828C21.5012 18.4694 21.4723 18.5657 21.4627 18.6523C21.453 18.7293 21.4435 18.8448 21.405 18.8928C21.4242 19.0084 21.3568 19.249 21.3376 19.3741C21.3183 19.4992 21.3184 19.7302 21.2509 19.8168C21.2606 19.913 21.2124 20.2691 21.1643 20.3269C21.1739 20.4135 21.0969 20.8947 21.0584 20.9428C21.0681 21.0583 21.0007 21.3759 20.9814 21.5106C20.9622 21.655 20.991 21.6742 20.8467 21.6839H2.7526V21.6742C2.17512 21.6742 1.59767 21.6742 1.02983 21.6839H0C0.00960344 21.6068 0.028853 21.5202 0.0481453 21.4336L0.125144 20.9332C0.134747 20.8947 0.153997 20.7214 0.173289 20.7022C0.173289 20.6445 0.240641 20.2017 0.259933 20.1728C0.259933 20.1055 0.27914 20.0092 0.288786 19.9515C0.500531 18.7195 0.336931 19.7879 0.587176 18.1613L0.616029 18.1902L0.615943 18.1903ZM5.00467 19.865H8.25776C9.26835 14.8891 10.6158 6.95853 11.5109 1.75171L8.2867 1.75167C8.3252 2.89695 5.15876 19.0083 5.01436 19.8746L5.00472 19.865H5.00467ZM13.1469 14.6003C13.1181 14.6677 13.1084 14.7929 13.0988 14.8794C13.0892 14.9661 13.0507 15.072 13.0507 15.1682C13.0507 15.2259 13.0218 15.3029 13.0122 15.3607C13.0025 15.4281 12.9833 15.5147 12.9737 15.5917C12.9544 15.6206 12.9063 15.9189 12.9063 15.9863C12.8774 16.0248 12.8004 16.5157 12.8004 16.6023L12.6946 17.1412C12.6753 17.2856 12.6272 17.4011 12.6465 17.5839C12.6753 17.8727 12.9255 18.0555 13.2335 18.0074C13.4645 17.9689 13.4452 17.9497 13.5992 17.863C13.657 17.7668 13.888 17.5743 13.8687 17.4203C13.9072 17.3626 13.9746 16.9199 13.9842 16.8525C14.0131 16.7274 14.0901 16.3424 14.0805 16.2461L14.0901 16.2173C14.0901 16.2076 14.1671 15.9863 14.1478 15.8515L14.1767 15.7553C14.1863 15.7264 14.1863 15.6879 14.1959 15.6494C14.2055 15.582 14.2344 15.5051 14.2151 15.4377C14.2248 15.4185 14.2248 15.4377 14.2343 15.3992L14.2536 15.3125C14.2632 15.2451 14.2632 15.2451 14.2632 15.1874C14.3113 15.1297 14.3306 14.8698 14.3498 14.7736C14.3691 14.6485 14.4365 14.379 14.4268 14.2731L14.4942 13.9844C14.5134 13.8785 14.5424 13.7726 14.5327 13.6764C14.5616 13.6379 14.5616 13.5802 14.5519 13.5224C14.6386 13.3877 14.5038 12.868 14.4557 12.7236C14.4076 12.5889 14.1574 12.1846 14.0804 12.1461C14.0611 12.098 13.8494 11.8092 13.8013 11.7804C13.782 11.7226 13.8013 11.7707 13.7628 11.7226L13.4933 11.3858L13.426 11.2799C13.3393 11.1741 12.9351 10.6447 12.8966 10.6351C12.8774 10.5677 12.7137 10.3752 12.656 10.3078C12.6079 10.2501 12.4443 10.0191 12.4057 9.99987C12.3865 9.96137 12.1555 9.63413 12.117 9.61488C12.0688 9.49938 11.9823 9.39349 11.9149 9.27803C11.886 9.22989 11.8475 9.16254 11.8186 9.09514C11.7994 9.04704 11.7705 8.95079 11.7416 8.91229C11.7031 8.6909 11.6839 8.58505 11.6935 8.34445L11.7801 7.72851L11.9245 6.92003C11.9534 6.78532 12.0304 6.43883 12.0112 6.32333C12.0593 6.25594 12.0978 5.94799 12.0978 5.8517C12.1363 5.80355 12.2133 5.31271 12.2037 5.24536C12.271 5.13946 12.2999 4.68712 12.348 4.52352C12.3672 4.38882 12.4443 4.09043 12.4347 3.97497C12.4539 3.95576 12.4443 3.97497 12.4539 3.93647L12.4924 3.77287C12.5116 3.70548 12.5405 3.62848 12.5309 3.56113C12.5598 3.52263 12.5501 3.54188 12.5694 3.48409C12.579 3.45523 12.5886 3.43598 12.5983 3.40709C12.6175 3.34938 12.6368 3.31088 12.6368 3.24349C12.6849 3.19534 12.7427 3.03174 12.7715 2.95474L12.9255 2.666C12.9737 2.63711 13.0218 2.56011 13.0603 2.512C13.1084 2.44461 13.1469 2.41576 13.2046 2.36761C13.2527 2.32911 13.5222 2.14626 13.5318 2.12701C13.6185 2.09816 13.7147 2.03081 13.8109 1.99231C13.9072 1.95377 13.9938 1.91527 14.0997 1.88641C14.3211 1.81906 14.5135 1.79021 14.7541 1.77092C15.4375 1.75171 16.1401 1.77092 16.833 1.77092C17.4971 1.77092 18.1227 1.82862 18.4788 2.21361C18.5558 2.29061 18.7194 2.512 18.7676 2.64675C18.8061 2.76225 18.8542 2.84885 18.8831 2.97399C18.912 3.1087 18.9216 3.23384 18.9216 3.39744C18.9216 3.45519 18.912 3.56108 18.9023 3.63804C18.8927 3.71504 18.8735 3.81129 18.8735 3.89793C18.8638 3.98457 18.835 4.09043 18.8253 4.17703C18.8157 4.27328 18.7965 4.40802 18.7676 4.48502C18.7676 4.55237 18.7387 4.65827 18.7291 4.73527C18.7099 4.83147 18.6906 4.92776 18.681 5.01436C18.6714 5.04322 18.6329 5.26461 18.6329 5.30311C18.6232 5.3705 18.604 5.44746 18.5847 5.53406C18.5655 5.63031 18.5462 5.71695 18.5462 5.81316C18.5173 5.8998 18.5077 6.0153 18.4885 6.12115C18.4693 6.24625 18.45 6.34254 18.4308 6.45799C18.4308 6.52539 18.3923 6.68895 18.3826 6.74674C18.373 6.80449 18.373 6.82374 18.3634 6.89113C18.3538 6.93923 18.3345 6.99698 18.3345 7.06433C18.3249 7.13173 18.3057 7.21833 18.2864 7.29533C18.2672 7.38197 18.2479 7.47818 18.2479 7.55518C18.2383 7.61293 18.219 7.68992 18.1998 7.76692L15.63 7.77657C15.63 7.59372 15.7455 7.26648 15.7359 7.09319C15.784 7.03548 15.8321 6.6697 15.8225 6.58314C15.8418 6.55424 15.8321 6.58314 15.8418 6.53499L15.9188 6.0249C15.9765 5.95751 16.0246 5.40896 16.0631 5.28381C16.0824 5.14907 16.1401 4.94697 16.1305 4.82182C16.169 4.76412 16.169 4.61972 16.1978 4.55237L16.2075 4.45613L16.2363 4.33102C16.3134 3.95568 16.169 3.62844 15.7744 3.62844C15.4568 3.62844 15.1295 3.82093 15.0333 4.09043C15.0141 4.13857 15.0141 4.16742 14.9948 4.20592C14.9756 4.30217 14.9467 4.43692 14.9467 4.53317C14.9275 4.61981 14.9178 4.67752 14.8985 4.77376C14.8793 4.87001 14.86 4.94701 14.86 5.05286L14.8215 5.19721L14.7926 5.37046C14.7734 5.49556 14.7445 5.61106 14.7349 5.7266C14.7061 5.7458 14.7157 5.80359 14.7061 5.8517C14.6964 5.91905 14.6868 5.93834 14.6772 5.99605C14.6675 6.08269 14.629 6.20779 14.629 6.29444C14.6098 6.37144 14.6002 6.43879 14.5809 6.53504C14.5617 6.63124 14.5424 6.70828 14.5424 6.81413C14.5135 6.85263 14.475 7.13173 14.4654 7.22798C14.4557 7.29533 14.4365 7.56482 14.4557 7.63222C14.475 7.68992 14.4365 7.65143 14.4846 7.68036C14.4365 7.81507 14.6097 8.15196 14.6867 8.2867C14.7349 8.3637 14.6771 8.31556 14.7541 8.3541C14.7445 8.4022 14.7445 8.3637 14.7541 8.4022C14.7541 8.42145 14.7733 8.4407 14.783 8.45995L15.245 9.08554C15.2835 9.11439 15.2161 9.08554 15.2835 9.11439C15.2835 9.1721 15.5144 9.44164 15.5626 9.48013L15.9091 9.88437C15.9091 9.89402 15.8898 9.89402 15.9379 9.96137L16.3711 10.5004L16.6116 10.7988C16.679 10.8854 16.6501 10.8661 16.7079 10.895C16.7175 10.9527 16.8522 11.1163 16.8907 11.1837C16.9677 11.2992 17.0351 11.4628 17.0928 11.4917C17.0736 11.5494 17.0832 11.5109 17.1121 11.5783C17.1313 11.6072 17.1313 11.6168 17.1506 11.665L17.2757 12.0211C17.3142 12.1655 17.2853 12.1751 17.3334 12.2136C17.2853 12.3291 17.3142 12.5024 17.3142 12.6274C17.3045 12.7045 17.2949 12.7237 17.2949 12.82C17.2757 12.8488 17.2083 13.3204 17.2083 13.3974C17.1794 13.4263 17.2083 13.3878 17.1891 13.4359C17.1891 13.4455 17.1794 13.5033 17.1794 13.5033C17.1698 13.5707 17.1602 13.6091 17.1602 13.6669C17.141 13.7054 17.0736 14.1 17.0736 14.1577C17.0544 14.2348 17.0351 14.3503 17.0255 14.4465C17.0158 14.5524 16.9773 14.6486 16.9773 14.7737C16.9581 14.793 16.9581 14.8411 16.9485 14.8796C16.9388 14.9373 16.9388 14.9663 16.9292 15.0143C16.91 15.1106 16.9004 15.2165 16.8811 15.3031C16.8811 15.3993 16.833 15.5341 16.833 15.6496C16.8137 15.6785 16.7848 15.8709 16.7848 15.9287C16.7656 16.0634 16.7271 16.1981 16.7175 16.3425C16.6982 16.3906 16.6501 16.6793 16.6501 16.7563C16.6212 16.7755 16.6212 16.8525 16.6212 16.8911C16.6116 16.9584 16.602 16.9873 16.5923 17.0547C16.5731 17.1702 16.5442 17.2953 16.5346 17.4108C16.5154 17.4589 16.4961 17.5648 16.4865 17.6225C16.4673 17.6899 16.4383 17.7958 16.4288 17.8728L16.2651 18.3348C16.1785 18.5465 16.0726 18.6716 16.0342 18.7679C16.015 18.7775 15.8994 18.9411 15.8706 18.9796C15.8321 19.0277 15.8224 19.0374 15.7839 19.0855L15.6781 19.201C15.6011 19.3068 15.2931 19.5282 15.1487 19.5859C15.0717 19.6148 15.0043 19.6341 14.9273 19.6822C14.8407 19.6918 14.5038 19.8073 14.1959 19.8169L13.3393 19.8361C13.1757 19.8361 13.0698 19.8553 12.9255 19.8553L11.809 19.8555C11.7032 19.8555 11.6839 19.8362 11.5876 19.8362C11.5395 19.8362 11.4048 19.8074 11.3471 19.7977C11.3085 19.7881 11.2797 19.7881 11.2315 19.7785C11.1834 19.7689 11.1642 19.7496 11.1064 19.7496C10.7696 19.6726 10.6734 19.5571 10.5001 19.432C10.4712 19.4128 10.4905 19.4224 10.4712 19.4128C10.4424 19.3647 10.4712 19.4032 10.4327 19.3551C10.4231 19.3359 10.4135 19.3359 10.4039 19.3166L10.0766 18.7006C10.067 18.614 10.0381 18.537 10.0285 18.4504C10.0188 18.3542 10.0381 18.2675 10.0188 18.1809C10.0477 18.1232 10.0862 17.6804 10.0959 17.5746C10.1151 17.4206 10.1921 17.103 10.1825 16.9779C10.221 16.9201 10.2499 16.718 10.2402 16.6506L10.2499 16.6217C10.2499 16.6217 10.3365 16.3041 10.3172 16.179C10.3557 16.1309 10.452 15.5631 10.4423 15.4764L10.4808 15.3321C10.4905 15.2647 10.5097 15.2262 10.4905 15.1685L10.5097 15.1107C10.5097 15.1011 10.5193 15.0626 10.5193 15.053C10.529 15.0145 10.529 14.976 10.5385 14.9375C10.5482 14.8605 10.5771 14.7739 10.5674 14.6969C10.6156 14.6295 10.6636 14.3119 10.6541 14.2157C10.6926 14.158 10.7696 13.619 10.7888 13.5035C10.8465 13.4554 12.0015 13.4843 12.0688 13.4843H13.3778L13.2816 14.0521L13.2431 14.2735C13.2239 14.3793 13.1854 14.4852 13.1854 14.6007H13.1468L13.1469 14.6003Z" fill="#614E51"/>
<path fill-rule="evenodd" clip-rule="evenodd" d="M32.2999 8.36395L32.3769 9.57667C32.3865 9.64407 32.3865 9.69217 32.3865 9.78842C32.3865 9.88467 32.4057 9.89427 32.4057 9.99052C32.4057 10.26 32.4539 10.5391 32.4539 10.8182L32.4827 11.2128C32.5019 11.3572 32.5019 11.4919 32.5019 11.6363C32.5019 11.7518 32.5308 11.9154 32.5404 12.0309L32.5693 12.6277C32.5693 12.7239 32.5885 12.7432 32.5885 12.8298L32.6367 13.6575C32.6367 13.7537 32.6559 13.7633 32.6559 13.8596C32.6559 14.1002 32.6848 14.2157 32.6848 14.4755L32.7233 14.8893L31.0101 14.8893L31.3277 13.2532C31.3759 12.9741 31.4433 12.7142 31.4913 12.435C31.5106 12.3003 31.5395 12.1752 31.5684 12.0308C31.5972 11.8865 31.6261 11.7613 31.6454 11.617L31.963 9.98083C32.0207 9.71138 32.0592 9.43228 32.1266 9.16274L32.2421 8.55636C32.2517 8.51786 32.2517 8.50826 32.2613 8.45051L32.2902 8.34466L32.2998 8.36387L32.2999 8.36395ZM41.5779 11.2321H39.9128C39.8454 11.2321 39.8743 11.1743 39.8743 11.0973L40.0668 8.04635C40.0668 7.95011 40.086 7.9405 40.086 7.85386L40.1437 6.83367C40.1533 6.76628 40.1533 6.70857 40.1533 6.63153C40.1533 6.45833 40.2015 6.02519 40.2015 5.82309C40.2015 5.72689 40.2207 5.7076 40.2207 5.62099L40.24 5.20715C40.2496 5.09165 40.2688 4.91841 40.2688 4.7933H42.0494C42.5402 4.7933 42.3958 5.15905 42.3958 5.54404L42.1745 8.98958C42.1745 9.06658 42.1841 9.13393 42.1745 9.21097C42.1263 9.64407 42.1263 10.2023 42.0782 10.6258C42.0494 10.8856 42.1552 11.2225 41.5778 11.2225V11.2321L41.5779 11.2321ZM29.9322 20.202C29.9707 20.0192 30.0092 19.8171 30.0477 19.6342C30.0862 19.4321 30.1248 19.2492 30.1633 19.0471C30.2017 18.8546 30.2402 18.6621 30.2787 18.4601C30.3172 18.2675 30.3557 18.0654 30.4038 17.8826L32.9447 17.8825C32.9447 18.0461 32.9928 18.306 32.9928 18.4696C33.0025 18.7584 33.0506 19.0567 33.0602 19.3455C33.0698 19.538 33.1083 19.7401 33.1083 19.9422C33.1083 20.0288 33.0987 20.202 33.1757 20.202H39.2487C39.3257 20.202 39.2969 20.0673 39.3161 19.8748C39.3354 19.6342 39.3353 19.3743 39.3642 19.1337C39.3739 19.076 39.3642 19.0086 39.3642 18.9509L39.4316 18.0173C39.4508 17.8441 39.4413 17.6227 39.4701 17.4494C39.499 17.2666 39.4893 17.0741 39.5086 16.8816C39.5183 16.8239 39.5086 16.7661 39.5183 16.6987L39.6145 15.2069C39.6145 15.1299 39.6145 15.0818 39.6241 15.0048C39.653 14.793 39.6723 14.4562 39.6723 14.2445H40.115C40.1823 14.2445 40.1727 14.3311 40.192 14.3889L40.6828 16.4485C40.7405 16.6891 40.8079 16.9682 40.8657 17.2088C41.0582 17.9595 41.2411 18.7006 41.4047 19.4609L41.5394 20.0288C41.5586 20.0962 41.5491 20.1924 41.6164 20.1924H45.4373C45.4373 20.1057 45.3699 19.9133 45.3411 19.817L44.9465 18.3445C44.7925 17.7189 44.6 17.1029 44.446 16.4774C44.292 15.8614 44.0995 15.2358 43.9552 14.6198C43.9263 14.4947 43.8782 14.3696 43.8493 14.2445C44.3209 14.2445 44.677 14.1194 44.9368 13.9077C45.37 13.5612 45.6394 13.0318 45.6298 12.4447L45.8416 9.07618C45.8608 8.97033 45.8512 8.83559 45.8704 8.73934L45.9089 8.05596C45.9089 7.97896 45.9186 7.95975 45.9281 7.90196C45.9378 7.83461 45.9281 7.78646 45.9378 7.71911C45.9667 7.55551 45.957 7.38227 45.9667 7.21862L46.0148 6.54493C46.0244 6.38129 46.0244 6.18879 46.0437 6.02519L46.1014 5.00501H47.2467C47.2467 5.3226 47.1985 5.6306 47.1985 5.94819L47.1311 6.89138C47.1119 7.05498 47.1215 7.20898 47.1119 7.37258L47.0445 8.31576C47.0445 8.48901 47.0349 8.65261 47.0157 8.79696L46.7847 12.589C46.7655 12.7237 46.7655 12.9258 46.7558 13.0606C46.7558 13.1473 46.7366 13.1761 46.7366 13.282L46.4286 18.2867C46.419 18.4311 46.3901 18.6043 46.3901 18.7487L46.3324 19.7016C46.3132 19.8459 46.3035 20.0192 46.3035 20.1828H50.0764C50.1534 20.1828 50.1245 20.0769 50.1245 19.9903C50.1245 19.8363 50.163 19.6823 50.163 19.5091L50.24 18.3156C50.2592 18.1905 50.2689 17.9884 50.2689 17.844C50.2689 17.7574 50.2881 17.7189 50.2881 17.6034C50.2881 17.4879 50.3073 17.4591 50.3073 17.3628C50.3073 17.2377 50.3169 17.0164 50.3362 16.8912C50.3651 16.7276 50.3458 16.564 50.3651 16.4003C50.3747 16.256 50.3939 16.0924 50.3939 15.9384L50.4325 15.4572C50.4325 15.3513 50.4421 15.3128 50.4517 15.2358L50.4902 14.4947C50.5094 14.2156 50.5479 13.8306 50.5575 13.5515L50.6057 12.589C50.6153 12.4447 50.6442 12.2811 50.6442 12.1271C50.6442 11.9634 50.673 11.7998 50.6827 11.6459C50.6923 11.309 50.7212 11.0203 50.7308 10.6834L51.0677 5.45731C51.0773 5.37066 51.0773 5.30331 51.0773 5.20706C51.0773 5.12042 51.0965 5.08196 51.0965 4.96647H53.5989C53.5315 4.68737 53.4834 4.39862 53.416 4.10028L53.1562 2.80095C53.1273 2.64696 53.0984 2.51221 53.0695 2.35826C53.0406 2.22351 53.0118 2.06951 52.9829 1.93477C52.954 1.78077 52.9058 1.63638 52.9058 1.48242H45.9762C45.9666 1.54982 45.9473 1.59796 45.9281 1.65567C45.8703 1.81927 45.7933 2.00216 45.7548 2.16576H45.7163C45.6971 2.09837 45.6297 2.05022 45.5816 2.00212C45.4757 1.89627 45.3506 1.82891 45.2255 1.76152C44.9079 1.56902 44.4074 1.48242 43.9839 1.48242H36.7271C36.7271 1.74231 36.6886 1.94441 36.6886 2.18501C36.6886 2.26205 36.6789 2.2909 36.6789 2.33901C36.6693 2.4064 36.6789 2.46411 36.6693 2.5219C36.6597 2.6181 36.6501 2.77214 36.6404 2.86839C36.6308 2.9261 36.6404 2.98389 36.6404 3.04159L36.5827 3.92707C36.5538 4.13882 36.5442 4.71631 36.525 4.98576L36.4961 5.5055C36.4961 5.68835 36.4576 5.84234 36.4576 6.01555L36.3517 7.59397C36.3421 7.88271 36.294 8.18106 36.3036 8.4698C36.3036 8.75854 36.2651 9.05689 36.2555 9.34564L36.1207 11.4245C36.1207 11.8383 36.0533 12.2618 36.0533 12.6757H36.0341C36.0341 12.3292 35.909 11.6747 35.8801 11.2898L35.8513 11.0588C35.8416 10.9626 35.8416 10.9144 35.832 10.8278L35.5048 8.0656C35.4181 7.45922 35.3797 6.82403 35.2834 6.22729L35.2257 5.76534L34.7348 1.60757C34.7156 1.43432 34.6963 1.49207 34.3306 1.49207L30.7118 1.49203L30.0573 4.19648C29.5472 6.22725 29.0756 8.26762 28.5655 10.308C28.5078 10.5294 28.45 10.7604 28.4019 10.9818L27.3336 15.3801L27.2469 15.7266L26.2556 19.7977C26.2459 19.8266 26.1689 20.1346 26.1689 20.1346C26.1786 20.1827 26.1689 20.1635 26.2267 20.1635H29.9321V20.202L29.9322 20.202Z" fill="#614E51"/>
</g>
<defs>
<clipPath id="clip0_592_1251">
<rect width="52.3379" height="21.6839" fill="white"/>
</clipPath>
</defs>
</svg>
