<svg width="20" height="20" viewBox="0 0 20 20" fill="none" xmlns="http://www.w3.org/2000/svg">
<g clip-path="url(#clip0_100_449)">
<path d="M1.8959 19.8746C1.40558 19.9032 0.923348 19.7401 0.550889 19.42C-0.18363 18.6811 -0.18363 17.4877 0.550889 16.7489L16.6344 0.665244C17.3984 -0.049623 18.5972 -0.00988396 19.3121 0.75408C19.9585 1.44493 19.9962 2.50678 19.4003 3.24167L3.22196 19.42C2.85434 19.7355 2.3798 19.8982 1.8959 19.8746Z" fill="black"/>
<path d="M17.9605 19.8747C17.4635 19.8726 16.9872 19.6753 16.6343 19.3253L0.550736 3.24165C-0.129757 2.447 -0.0372407 1.25108 0.757417 0.570524C1.46667 -0.0368543 2.51268 -0.0368543 3.22187 0.570524L19.4002 16.6541C20.164 17.3692 20.2034 18.568 19.4884 19.3318C19.4599 19.3622 19.4306 19.3916 19.4002 19.42C19.2042 19.5904 18.9752 19.7188 18.7276 19.797C18.4799 19.8752 18.2188 19.9016 17.9605 19.8747Z" fill="black"/>
</g>
<defs>
<clipPath id="clip0_100_449">
<rect width="20" height="20" fill="white"/>
</clipPath>
</defs>
</svg>
